<?xml version="1.0" encoding="UTF-8" standalone="no"?>
<!DOCTYPE svg PUBLIC "-//W3C//DTD SVG 1.1//EN"
 "http://www.w3.org/Graphics/SVG/1.1/DTD/svg11.dtd">
<!-- Generated by graphviz version 10.0.1 (20240210.2158)
 -->
<!-- Title: G Pages: 1 -->
<svg width="1431pt" height="252pt"
 viewBox="0.00 0.00 1431.20 251.95" xmlns="http://www.w3.org/2000/svg" xmlns:xlink="http://www.w3.org/1999/xlink">
<g id="graph0" class="graph" transform="scale(1 1) rotate(0) translate(21.6 230.35)">
<title>G</title>
<polygon fill="#111111" stroke="none" points="-21.6,21.6 -21.6,-230.35 1409.6,-230.35 1409.6,21.6 -21.6,21.6"/>
<!-- App.js -->
<g id="node1" class="node">
<title>App.js</title>
<path fill="none" stroke="#c6c5fe" d="M143.83,-124.75C143.83,-124.75 105.67,-124.75 105.67,-124.75 101.71,-124.75 97.75,-120.79 97.75,-116.83 97.75,-116.83 97.75,-108.92 97.75,-108.92 97.75,-104.96 101.71,-101 105.67,-101 105.67,-101 143.83,-101 143.83,-101 147.79,-101 151.75,-104.96 151.75,-108.92 151.75,-108.92 151.75,-116.83 151.75,-116.83 151.75,-120.79 147.79,-124.75 143.83,-124.75"/>
<text text-anchor="middle" x="124.75" y="-107.45" font-family="Arial" font-size="14.00" fill="#c6c5fe">App.js</text>
</g>
<!-- components/Header.js -->
<g id="node2" class="node">
<title>components/Header.js</title>
<path fill="none" stroke="#cfffac" d="M406.58,-166.75C406.58,-166.75 271.42,-166.75 271.42,-166.75 267.46,-166.75 263.5,-162.79 263.5,-158.83 263.5,-158.83 263.5,-150.92 263.5,-150.92 263.5,-146.96 267.46,-143 271.42,-143 271.42,-143 406.58,-143 406.58,-143 410.54,-143 414.5,-146.96 414.5,-150.92 414.5,-150.92 414.5,-158.83 414.5,-158.83 414.5,-162.79 410.54,-166.75 406.58,-166.75"/>
<text text-anchor="middle" x="339" y="-149.45" font-family="Arial" font-size="14.00" fill="#cfffac">components/Header.js</text>
</g>
<!-- App.js&#45;&gt;components/Header.js -->
<g id="edge1" class="edge">
<title>App.js&#45;&gt;components/Header.js</title>
<path fill="none" stroke="#757575" d="M151.98,-122.98C162.91,-126.86 175.81,-131.04 187.75,-133.88 208.39,-138.77 230.91,-142.66 252.09,-145.7"/>
<polygon fill="#757575" stroke="#757575" points="251.47,-149.14 261.86,-147.04 252.43,-142.21 251.47,-149.14"/>
</g>
<!-- components/gitHubFilesCounter/FilesCounter.js -->
<g id="node3" class="node">
<title>components/gitHubFilesCounter/FilesCounter.js</title>
<path fill="none" stroke="#c6c5fe" d="M482.33,-124.75C482.33,-124.75 195.67,-124.75 195.67,-124.75 191.71,-124.75 187.75,-120.79 187.75,-116.83 187.75,-116.83 187.75,-108.92 187.75,-108.92 187.75,-104.96 191.71,-101 195.67,-101 195.67,-101 482.33,-101 482.33,-101 486.29,-101 490.25,-104.96 490.25,-108.92 490.25,-108.92 490.25,-116.83 490.25,-116.83 490.25,-120.79 486.29,-124.75 482.33,-124.75"/>
<text text-anchor="middle" x="339" y="-107.45" font-family="Arial" font-size="14.00" fill="#c6c5fe">components/gitHubFilesCounter/FilesCounter.js</text>
</g>
<!-- App.js&#45;&gt;components/gitHubFilesCounter/FilesCounter.js -->
<g id="edge2" class="edge">
<title>App.js&#45;&gt;components/gitHubFilesCounter/FilesCounter.js</title>
<path fill="none" stroke="#757575" d="M152.2,-112.88C159.16,-112.88 167.19,-112.88 175.92,-112.88"/>
<polygon fill="#757575" stroke="#757575" points="175.83,-116.38 185.83,-112.88 175.83,-109.38 175.83,-116.38"/>
</g>
<!-- styles.css -->
<g id="node4" class="node">
<title>styles.css</title>
<path fill="none" stroke="#cfffac" d="M368.33,-82.75C368.33,-82.75 309.67,-82.75 309.67,-82.75 305.71,-82.75 301.75,-78.79 301.75,-74.83 301.75,-74.83 301.75,-66.92 301.75,-66.92 301.75,-62.96 305.71,-59 309.67,-59 309.67,-59 368.33,-59 368.33,-59 372.29,-59 376.25,-62.96 376.25,-66.92 376.25,-66.92 376.25,-74.83 376.25,-74.83 376.25,-78.79 372.29,-82.75 368.33,-82.75"/>
<text text-anchor="middle" x="339" y="-65.45" font-family="Arial" font-size="14.00" fill="#cfffac">styles.css</text>
</g>
<!-- App.js&#45;&gt;styles.css -->
<g id="edge3" class="edge">
<title>App.js&#45;&gt;styles.css</title>
<path fill="none" stroke="#757575" d="M151.98,-102.77C162.91,-98.89 175.81,-94.71 187.75,-91.88 221.57,-83.86 260.46,-78.53 290.19,-75.24"/>
<polygon fill="#757575" stroke="#757575" points="290.44,-78.73 300.01,-74.2 289.7,-71.77 290.44,-78.73"/>
</g>
<!-- components/gitHubFilesCounter/FilesCounterResults.js -->
<g id="node8" class="node">
<title>components/gitHubFilesCounter/FilesCounterResults.js</title>
<path fill="none" stroke="#c6c5fe" d="M866.58,-166.75C866.58,-166.75 534.17,-166.75 534.17,-166.75 530.21,-166.75 526.25,-162.79 526.25,-158.83 526.25,-158.83 526.25,-150.92 526.25,-150.92 526.25,-146.96 530.21,-143 534.17,-143 534.17,-143 866.58,-143 866.58,-143 870.54,-143 874.5,-146.96 874.5,-150.92 874.5,-150.92 874.5,-158.83 874.5,-158.83 874.5,-162.79 870.54,-166.75 866.58,-166.75"/>
<text text-anchor="middle" x="700.38" y="-149.45" font-family="Arial" font-size="14.00" fill="#c6c5fe">components/gitHubFilesCounter/FilesCounterResults.js</text>
</g>
<!-- components/gitHubFilesCounter/FilesCounter.js&#45;&gt;components/gitHubFilesCounter/FilesCounterResults.js -->
<g id="edge4" class="edge">
<title>components/gitHubFilesCounter/FilesCounter.js&#45;&gt;components/gitHubFilesCounter/FilesCounterResults.js</title>
<path fill="none" stroke="#757575" d="M445.88,-125.25C488.74,-130.26 538.37,-136.06 582.3,-141.19"/>
<polygon fill="#757575" stroke="#757575" points="581.79,-144.66 592.13,-142.34 582.6,-137.7 581.79,-144.66"/>
</g>
<!-- components/gitHubFilesCounter/RepoInput.js -->
<g id="node9" class="node">
<title>components/gitHubFilesCounter/RepoInput.js</title>
<path fill="none" stroke="#c6c5fe" d="M836.96,-124.75C836.96,-124.75 563.79,-124.75 563.79,-124.75 559.83,-124.75 555.88,-120.79 555.88,-116.83 555.88,-116.83 555.88,-108.92 555.88,-108.92 555.88,-104.96 559.83,-101 563.79,-101 563.79,-101 836.96,-101 836.96,-101 840.92,-101 844.88,-104.96 844.88,-108.92 844.88,-108.92 844.88,-116.83 844.88,-116.83 844.88,-120.79 840.92,-124.75 836.96,-124.75"/>
<text text-anchor="middle" x="700.38" y="-107.45" font-family="Arial" font-size="14.00" fill="#c6c5fe">components/gitHubFilesCounter/RepoInput.js</text>
</g>
<!-- components/gitHubFilesCounter/FilesCounter.js&#45;&gt;components/gitHubFilesCounter/RepoInput.js -->
<g id="edge5" class="edge">
<title>components/gitHubFilesCounter/FilesCounter.js&#45;&gt;components/gitHubFilesCounter/RepoInput.js</title>
<path fill="none" stroke="#757575" d="M490.59,-112.88C508.33,-112.88 526.46,-112.88 544.27,-112.88"/>
<polygon fill="#757575" stroke="#757575" points="544.09,-116.38 554.09,-112.88 544.09,-109.38 544.09,-116.38"/>
</g>
<!-- hooks/gitHub/useExtFilesTree.jsx -->
<g id="node10" class="node">
<title>hooks/gitHub/useExtFilesTree.jsx</title>
<path fill="none" stroke="#c6c5fe" d="M800.58,-63.75C800.58,-63.75 600.17,-63.75 600.17,-63.75 596.21,-63.75 592.25,-59.79 592.25,-55.83 592.25,-55.83 592.25,-47.92 592.25,-47.92 592.25,-43.96 596.21,-40 600.17,-40 600.17,-40 800.58,-40 800.58,-40 804.54,-40 808.5,-43.96 808.5,-47.92 808.5,-47.92 808.5,-55.83 808.5,-55.83 808.5,-59.79 804.54,-63.75 800.58,-63.75"/>
<text text-anchor="middle" x="700.38" y="-46.45" font-family="Arial" font-size="14.00" fill="#c6c5fe">hooks/gitHub/useExtFilesTree.jsx</text>
</g>
<!-- components/gitHubFilesCounter/FilesCounter.js&#45;&gt;hooks/gitHub/useExtFilesTree.jsx -->
<g id="edge6" class="edge">
<title>components/gitHubFilesCounter/FilesCounter.js&#45;&gt;hooks/gitHub/useExtFilesTree.jsx</title>
<path fill="none" stroke="#757575" d="M433.48,-100.55C452.31,-97.86 471.93,-94.91 490.25,-91.88 536.25,-84.27 587.69,-74.44 628.05,-66.44"/>
<polygon fill="#757575" stroke="#757575" points="628.51,-69.91 637.63,-64.53 627.14,-63.05 628.51,-69.91"/>
</g>
<!-- assets/images/file.svg -->
<g id="node5" class="node">
<title>assets/images/file.svg</title>
<path fill="none" stroke="#cfffac" d="M1115.83,-208.75C1115.83,-208.75 982.92,-208.75 982.92,-208.75 978.96,-208.75 975,-204.79 975,-200.83 975,-200.83 975,-192.92 975,-192.92 975,-188.96 978.96,-185 982.92,-185 982.92,-185 1115.83,-185 1115.83,-185 1119.79,-185 1123.75,-188.96 1123.75,-192.92 1123.75,-192.92 1123.75,-200.83 1123.75,-200.83 1123.75,-204.79 1119.79,-208.75 1115.83,-208.75"/>
<text text-anchor="middle" x="1049.38" y="-191.45" font-family="Arial" font-size="14.00" fill="#cfffac">assets/images/file.svg</text>
</g>
<!-- assets/images/search.svg -->
<g id="node6" class="node">
<title>assets/images/search.svg</title>
<path fill="none" stroke="#cfffac" d="M1127.46,-124.75C1127.46,-124.75 971.29,-124.75 971.29,-124.75 967.33,-124.75 963.38,-120.79 963.38,-116.83 963.38,-116.83 963.38,-108.92 963.38,-108.92 963.38,-104.96 967.33,-101 971.29,-101 971.29,-101 1127.46,-101 1127.46,-101 1131.42,-101 1135.38,-104.96 1135.38,-108.92 1135.38,-108.92 1135.38,-116.83 1135.38,-116.83 1135.38,-120.79 1131.42,-124.75 1127.46,-124.75"/>
<text text-anchor="middle" x="1049.38" y="-107.45" font-family="Arial" font-size="14.00" fill="#cfffac">assets/images/search.svg</text>
</g>
<!-- components/gitHubFilesCounter/FileCard.js -->
<g id="node7" class="node">
<title>components/gitHubFilesCounter/FileCard.js</title>
<path fill="none" stroke="#cfffac" d="M1180.33,-166.75C1180.33,-166.75 918.42,-166.75 918.42,-166.75 914.46,-166.75 910.5,-162.79 910.5,-158.83 910.5,-158.83 910.5,-150.92 910.5,-150.92 910.5,-146.96 914.46,-143 918.42,-143 918.42,-143 1180.33,-143 1180.33,-143 1184.29,-143 1188.25,-146.96 1188.25,-150.92 1188.25,-150.92 1188.25,-158.83 1188.25,-158.83 1188.25,-162.79 1184.29,-166.75 1180.33,-166.75"/>
<text text-anchor="middle" x="1049.38" y="-149.45" font-family="Arial" font-size="14.00" fill="#cfffac">components/gitHubFilesCounter/FileCard.js</text>
</g>
<!-- components/gitHubFilesCounter/FilesCounterResults.js&#45;&gt;assets/images/file.svg -->
<g id="edge7" class="edge">
<title>components/gitHubFilesCounter/FilesCounterResults.js&#45;&gt;assets/images/file.svg</title>
<path fill="none" stroke="#757575" d="M803.61,-167.25C854.41,-173.4 915.08,-180.74 963.31,-186.58"/>
<polygon fill="#757575" stroke="#757575" points="962.81,-190.04 973.16,-187.77 963.65,-183.09 962.81,-190.04"/>
</g>
<!-- components/gitHubFilesCounter/FilesCounterResults.js&#45;&gt;components/gitHubFilesCounter/FileCard.js -->
<g id="edge8" class="edge">
<title>components/gitHubFilesCounter/FilesCounterResults.js&#45;&gt;components/gitHubFilesCounter/FileCard.js</title>
<path fill="none" stroke="#757575" d="M874.88,-154.88C882.94,-154.88 891,-154.88 898.99,-154.88"/>
<polygon fill="#757575" stroke="#757575" points="898.72,-158.38 908.72,-154.88 898.72,-151.38 898.72,-158.38"/>
</g>
<!-- components/gitHubFilesCounter/RepoInput.js&#45;&gt;assets/images/search.svg -->
<g id="edge9" class="edge">
<title>components/gitHubFilesCounter/RepoInput.js&#45;&gt;assets/images/search.svg</title>
<path fill="none" stroke="#757575" d="M845.27,-112.88C881.1,-112.88 918.68,-112.88 951.62,-112.88"/>
<polygon fill="#757575" stroke="#757575" points="951.56,-116.38 961.56,-112.88 951.56,-109.38 951.56,-116.38"/>
</g>
<!-- config/config.js -->
<g id="node11" class="node">
<title>config/config.js</title>
<path fill="none" stroke="#cfffac" d="M1350.83,-74.75C1350.83,-74.75 1261.42,-74.75 1261.42,-74.75 1257.46,-74.75 1253.5,-70.79 1253.5,-66.83 1253.5,-66.83 1253.5,-58.92 1253.5,-58.92 1253.5,-54.96 1257.46,-51 1261.42,-51 1261.42,-51 1350.83,-51 1350.83,-51 1354.79,-51 1358.75,-54.96 1358.75,-58.92 1358.75,-58.92 1358.75,-66.83 1358.75,-66.83 1358.75,-70.79 1354.79,-74.75 1350.83,-74.75"/>
<text text-anchor="middle" x="1306.12" y="-57.45" font-family="Arial" font-size="14.00" fill="#cfffac">config/config.js</text>
</g>
<!-- hooks/gitHub/useExtFilesTree.jsx&#45;&gt;config/config.js -->
<g id="edge12" class="edge">
<title>hooks/gitHub/useExtFilesTree.jsx&#45;&gt;config/config.js</title>
<path fill="none" stroke="#757575" d="M808.97,-53.84C934.81,-56.13 1138.97,-59.85 1241.74,-61.72"/>
<polygon fill="#757575" stroke="#757575" points="1241.59,-65.22 1251.65,-61.9 1241.71,-58.22 1241.59,-65.22"/>
</g>
<!-- hooks/gitHub/useDefaultBranch.jsx -->
<g id="node12" class="node">
<title>hooks/gitHub/useDefaultBranch.jsx</title>
<path fill="none" stroke="#c6c5fe" d="M1154.46,-44.75C1154.46,-44.75 944.29,-44.75 944.29,-44.75 940.33,-44.75 936.38,-40.79 936.38,-36.83 936.38,-36.83 936.38,-28.92 936.38,-28.92 936.38,-24.96 940.33,-21 944.29,-21 944.29,-21 1154.46,-21 1154.46,-21 1158.42,-21 1162.38,-24.96 1162.38,-28.92 1162.38,-28.92 1162.38,-36.83 1162.38,-36.83 1162.38,-40.79 1158.42,-44.75 1154.46,-44.75"/>
<text text-anchor="middle" x="1049.38" y="-27.45" font-family="Arial" font-size="14.00" fill="#c6c5fe">hooks/gitHub/useDefaultBranch.jsx</text>
</g>
<!-- hooks/gitHub/useExtFilesTree.jsx&#45;&gt;hooks/gitHub/useDefaultBranch.jsx -->
<g id="edge13" class="edge">
<title>hooks/gitHub/useExtFilesTree.jsx&#45;&gt;hooks/gitHub/useDefaultBranch.jsx</title>
<path fill="none" stroke="#757575" d="M808.79,-45.99C845.57,-43.98 887,-41.71 924.94,-39.63"/>
<polygon fill="#757575" stroke="#757575" points="924.76,-43.15 934.55,-39.11 924.38,-36.16 924.76,-43.15"/>
</g>
<!-- utils/parseOwnerRepo.js -->
<g id="node13" class="node">
<title>utils/parseOwnerRepo.js</title>
<path fill="none" stroke="#cfffac" d="M1380.08,-23.75C1380.08,-23.75 1232.17,-23.75 1232.17,-23.75 1228.21,-23.75 1224.25,-19.79 1224.25,-15.83 1224.25,-15.83 1224.25,-7.92 1224.25,-7.92 1224.25,-3.96 1228.21,0 1232.17,0 1232.17,0 1380.08,0 1380.08,0 1384.04,0 1388,-3.96 1388,-7.92 1388,-7.92 1388,-15.83 1388,-15.83 1388,-19.79 1384.04,-23.75 1380.08,-23.75"/>
<text text-anchor="middle" x="1306.12" y="-6.45" font-family="Arial" font-size="14.00" fill="#cfffac">utils/parseOwnerRepo.js</text>
</g>
<!-- hooks/gitHub/useExtFilesTree.jsx&#45;&gt;utils/parseOwnerRepo.js -->
<g id="edge14" class="edge">
<title>hooks/gitHub/useExtFilesTree.jsx&#45;&gt;utils/parseOwnerRepo.js</title>
<path fill="none" stroke="#757575" d="M751.28,-39.57C793.41,-29.85 855.48,-17.09 910.5,-11.88 1013.75,-2.09 1132.88,-3.88 1213,-6.97"/>
<polygon fill="#757575" stroke="#757575" points="1212.4,-10.45 1222.53,-7.36 1212.68,-3.46 1212.4,-10.45"/>
</g>
<!-- hooks/gitHub/useDefaultBranch.jsx&#45;&gt;config/config.js -->
<g id="edge10" class="edge">
<title>hooks/gitHub/useDefaultBranch.jsx&#45;&gt;config/config.js</title>
<path fill="none" stroke="#757575" d="M1155.09,-45.21C1184.5,-48.67 1215.57,-52.33 1241.77,-55.41"/>
<polygon fill="#757575" stroke="#757575" points="1241.21,-58.87 1251.55,-56.57 1242.03,-51.92 1241.21,-58.87"/>
</g>
<!-- hooks/gitHub/useDefaultBranch.jsx&#45;&gt;utils/parseOwnerRepo.js -->
<g id="edge11" class="edge">
<title>hooks/gitHub/useDefaultBranch.jsx&#45;&gt;utils/parseOwnerRepo.js</title>
<path fill="none" stroke="#757575" d="M1162.85,-23.6C1179.53,-22.23 1196.55,-20.82 1212.76,-19.49"/>
<polygon fill="#757575" stroke="#757575" points="1212.64,-23.01 1222.32,-18.7 1212.07,-16.03 1212.64,-23.01"/>
</g>
<!-- index.js -->
<g id="node14" class="node">
<title>index.js</title>
<path fill="none" stroke="#c6c5fe" d="M53.83,-124.75C53.83,-124.75 7.92,-124.75 7.92,-124.75 3.96,-124.75 0,-120.79 0,-116.83 0,-116.83 0,-108.92 0,-108.92 0,-104.96 3.96,-101 7.92,-101 7.92,-101 53.83,-101 53.83,-101 57.79,-101 61.75,-104.96 61.75,-108.92 61.75,-108.92 61.75,-116.83 61.75,-116.83 61.75,-120.79 57.79,-124.75 53.83,-124.75"/>
<text text-anchor="middle" x="30.88" y="-107.45" font-family="Arial" font-size="14.00" fill="#c6c5fe">index.js</text>
</g>
<!-- index.js&#45;&gt;App.js -->
<g id="edge15" class="edge">
<title>index.js&#45;&gt;App.js</title>
<path fill="none" stroke="#757575" d="M62.21,-112.88C69.87,-112.88 78.18,-112.88 86.15,-112.88"/>
<polygon fill="#757575" stroke="#757575" points="85.94,-116.38 95.94,-112.88 85.94,-109.38 85.94,-116.38"/>
</g>
</g>
</svg>
